<svg width="140" height="142" viewBox="0 0 140 142" fill="none" xmlns="http://www.w3.org/2000/svg">
<g id="cat">
<path id="Vector 18" d="M118.02 116.282C113.574 116.497 110.416 109.398 109.305 106.471C109.118 105.976 108.431 105.889 108.136 106.329L89.9866 133.405C89.7864 133.704 89.8665 134.102 90.1783 134.281C93.244 136.043 108.232 144.202 118.02 141.211C129.928 137.572 143.908 127.188 137.9 116.282C135.224 111.424 132.029 106.977 126.54 107.762C121.881 108.427 122.72 116.054 118.02 116.282Z" fill="#383838"/>
<path id="Vector 19" d="M21.321 116.282C25.7663 116.497 28.9248 109.398 30.035 106.471C30.2228 105.976 30.9095 105.889 31.2043 106.329L49.3539 133.405C49.5542 133.704 49.474 134.102 49.1622 134.281C46.0965 136.043 31.109 144.202 21.321 141.211C9.41231 137.572 -4.56755 127.188 1.44067 116.282C4.11641 111.424 7.31104 106.977 12.8008 107.762C17.4591 108.427 16.6209 116.054 21.321 116.282Z" fill="#383838"/>
<path id="Rectangle 48" d="M29.4275 73.7767C31.0981 62.657 40.6512 54.4319 51.8957 54.4319H87.9952C99.3307 54.4319 108.932 62.7872 110.498 74.0141L116.307 115.668C118.212 129.332 107.6 141.526 93.8042 141.526H45.6379C31.7453 141.526 21.1057 129.169 23.1697 115.431L29.4275 73.7767Z" fill="#383838"/>
<g id="Group 9">
<path id="Ellipse 10" d="M127.486 47.4897C127.486 69.4488 101.773 76.8368 70.0544 76.8368C38.3356 76.8368 12.6224 69.4488 12.6224 47.4897C12.6224 25.5305 21.7737 0.471191 70.0544 0.471191C113.286 0.471191 127.486 25.5305 127.486 47.4897Z" fill="#414141"/>
<path id="Vector 16" d="M116.533 3.40726L91.8343 10.1188C90.7645 10.4095 90.5622 11.8392 91.5093 12.4153L117.55 28.2546C118.42 28.7838 119.527 28.1178 119.466 27.1012L118.124 4.55033C118.076 3.75084 117.306 3.19724 116.533 3.40726Z" fill="#414141"/>
<path id="Vector 17" d="M21.6804 0.589911L46.9768 9.47056C48.0097 9.83319 48.1229 11.2489 47.1606 11.771L21.8642 25.4956C21.0232 25.952 20.0001 25.343 20.0001 24.3862V1.78089C20.0001 0.910894 20.8595 0.301729 21.6804 0.589911Z" fill="#414141"/>
<g id="left eye">
<circle id="Ellipse 6" cx="45.4089" cy="46.9377" r="12.5906" fill="#FCFFA7"/>
<circle id="Ellipse 9" cx="47" cy="48" r="10" fill="#131513"/>
</g>
<g id="right eye">
<circle id="Ellipse 10_2" cx="94.5906" cy="47.5906" r="12.5906" fill="#FCFFA7"/>
<circle id="Ellipse 10_3" cx="93" cy="49" r="10" fill="#131513"/>
</g>
<path id="Vector 15" d="M72.9641 52.0486C70.8691 51.4284 69.3279 51.4606 67.1398 52.008C66.641 52.1329 66.5268 52.7623 66.955 53.047C67.9259 53.6925 69.391 54.543 70.37 54.543C71.3758 54.543 72.5099 53.6454 73.1999 52.9945C73.5227 52.6901 73.3895 52.1745 72.9641 52.0486Z" fill="#E3BCCD"/>
</g>
<path id="Ellipse 12" d="M61 83.5C61 89.5751 53.7843 90 45.5 90C37.2157 90 30 89.5751 30 83.5C30 77.4249 37.2157 68 45.5 68C53.7843 68 61 77.4249 61 83.5Z" fill="#4B4B4B"/>
<path id="Ellipse 13" d="M109 83.5C109 89.5751 101.784 90 93.5 90C85.2157 90 78 89.5751 78 83.5C78 77.4249 85.2157 68 93.5 68C101.784 68 109 77.4249 109 83.5Z" fill="#4B4B4B"/>
</g>
</svg>
